# xmcd CD database file
#
# Track frame offsets:
#	150
#	19652
#	43122
#	62222
#
# Disc length: 1140 seconds
#
# Revision: 0
# Processed by: cddbd v1.5.1PL0 Copyright (c) Steve Scherf et al.
# Submitted via: CDex 1.51
#
DISCID=2f047204
DTITLE=THTC - めっちゃハジけて ガッツとばして
DYEAR=1997
DGENRE=サウンドトラック (一般)
TTITLE0=めっちゃハジけて ガッツとばして
TTITLE1=青い自由。 白い望み。
TTITLE2=めっちゃハジけて ガッツとばして （オリジナルカラオケ）
TTITLE3=青い自由。 白い望み。 （オリジナルカラオケ）
EXTD=YEAR: 1997
EXTT0=
EXTT1=
EXTT2=
EXTT3=
PLAYORDER=
